<svg width="1200" height="579" viewBox="0 0 1200 579" fill="none" xmlns="http://www.w3.org/2000/svg">
<g filter="url(#filter0_d)">
<path fill-rule="evenodd" clip-rule="evenodd" d="M312.395 23.0256C308.68 23.2503 305.068 25.8044 304.821 28.3792C304.743 29.188 301.652 31.8942 297.389 34.886C291.249 39.1949 289.925 40.4723 289.045 42.937C288.153 45.4362 286.229 47.1903 275.908 54.9075C256.649 69.3092 235.91 86.3537 218.727 101.904C199.578 119.233 196.365 121.454 186.621 124.096C177.814 126.483 168.752 130.35 162.397 134.432C155.859 138.633 22.3169 271.784 18.818 277.593C15.2281 283.553 15.6213 291.174 19.9549 299.64C24.4399 308.404 28.544 313.619 39.5843 324.593C59.7765 344.66 74.3764 350.914 85.472 344.247C91.2588 340.769 224.438 207.187 228.642 200.644C232.711 194.309 236.58 185.238 238.965 176.44C241.607 166.696 243.828 163.483 261.157 144.334C276.707 127.151 293.752 106.412 308.154 87.153C315.871 76.8322 317.625 74.9084 320.124 74.0157C322.589 73.1363 323.866 71.8123 328.175 65.672C331.167 61.4088 333.873 58.3179 334.682 58.2404C337.257 57.9933 339.811 54.3814 340.035 50.6664C340.257 47.0311 340.064 46.7743 328.175 34.8857C316.287 22.9971 316.03 22.8042 312.395 23.0256Z" fill="#45D1FD"/>
</g>
<g filter="url(#filter1_d)">
<path fill-rule="evenodd" clip-rule="evenodd" d="M332.37 521.693C332.839 518.671 331.369 516.144 329.291 516.394C328.638 516.472 326.952 514.401 325.236 511.414C322.766 507.112 321.946 506.246 320.07 505.955C318.167 505.659 317.06 504.382 312.516 497.235C304.037 483.897 293.639 469.806 283.848 458.381C272.936 445.65 271.671 443.393 271.209 435.828C270.79 428.991 269.198 422.203 266.953 417.684C264.641 413.035 178.409 326.413 174.238 324.551C169.958 322.642 163.609 324.306 155.869 329.367C147.859 334.605 142.838 338.904 131.853 349.933C111.764 370.103 104.041 383.235 107.584 391.205C109.432 395.362 196.083 481.61 200.735 483.924C205.239 486.162 212.034 487.755 218.865 488.173C226.429 488.635 228.687 489.9 241.418 500.812C252.842 510.603 266.933 521 280.271 529.48C287.418 534.024 288.695 535.131 288.991 537.033C289.282 538.91 290.148 539.73 294.45 542.2C297.437 543.916 299.508 545.602 299.43 546.255C299.18 548.333 301.708 549.802 304.73 549.334C307.686 548.877 307.932 548.673 319.82 536.784C331.709 524.896 331.913 524.65 332.37 521.693Z" fill="#02539A"/>
</g>
<g filter="url(#filter2_d)">
<path fill-rule="evenodd" clip-rule="evenodd" d="M304.518 217.693C301.481 217.24 298.929 218.734 299.167 220.823C299.242 221.479 297.148 223.189 294.133 224.933C289.79 227.445 288.913 228.275 288.609 230.164C288.299 232.08 287.008 233.202 279.789 237.817C266.319 246.429 252.078 256.976 240.524 266.897C227.649 277.953 225.37 279.239 217.757 279.751C210.875 280.213 204.036 281.856 199.476 284.143C194.785 286.497 107.108 373.784 105.21 377.991C103.262 382.309 104.899 388.687 109.943 396.443C115.164 404.47 119.459 409.495 130.488 420.48C150.659 440.569 163.823 448.258 171.864 444.645C176.057 442.761 263.36 355.056 265.716 350.361C267.995 345.816 269.639 338.97 270.101 332.095C270.612 324.481 271.899 322.202 282.955 309.327C292.875 297.773 303.422 283.533 312.035 270.062C316.65 262.844 317.772 261.552 319.687 261.243C321.577 260.939 322.407 260.062 324.919 255.719C326.663 252.703 328.372 250.609 329.029 250.684C331.118 250.922 332.612 248.371 332.159 245.333C331.717 242.361 331.513 242.116 319.625 230.227C307.736 218.338 307.49 218.135 304.518 217.693Z" fill="#45D1FD"/>
</g>
<path d="M108.001 374.978L108.007 374.972L108.013 374.966L136.679 345.698L136.684 345.693L165.541 317.065C171.147 330.873 192.279 362.484 233.618 383.543L233.282 383.883C232.753 384.419 231.986 385.197 231.027 386.167C229.111 388.107 226.432 390.816 223.382 393.892C217.283 400.045 209.703 407.664 203.778 413.533C197.852 419.402 190.257 426.813 184.143 432.757C181.086 435.73 178.399 438.335 176.477 440.197C175.516 441.128 174.746 441.874 174.216 442.386L173.607 442.975L173.45 443.127L173.415 443.16C170.406 445.51 166.545 445.64 162.237 444.297C157.917 442.951 153.235 440.148 148.716 436.787C139.683 430.068 131.427 421.215 128.205 417.695L128.196 417.684L128.185 417.674C123.021 412.642 115.142 404.561 109.987 396.389C107.408 392.3 105.537 388.229 105.005 384.533C104.477 380.86 105.271 377.581 108.001 374.978Z" fill="#3BBEEE" stroke="#3BBEEE"/>
<path d="M386.095 410.244V208.644H530.383V228.228H408.271V300.228H488.335V319.524H408.271V410.244H386.095ZM572.687 203.748V410.244H551.375V208.644L572.687 203.748ZM629.48 265.956V352.932C629.48 365.604 633.128 375.684 640.424 383.172C647.72 390.66 657.512 394.404 669.8 394.404C678.44 394.404 686.12 392.484 692.84 388.644C699.752 384.612 705.32 379.044 709.544 371.94V265.956H730.856V410.244H709.544V393.54C703.976 400.068 697.352 404.964 689.672 408.228C682.184 411.492 673.736 413.124 664.328 413.124C647.816 413.124 634.376 407.94 624.008 397.572C613.64 387.204 608.456 373.764 608.456 357.252V265.956H629.48ZM767.094 410.244V265.956H788.406V282.948C793.974 276.42 800.598 271.524 808.278 268.26C815.958 264.804 824.502 263.076 833.91 263.076C850.23 263.076 863.574 268.26 873.942 278.628C884.31 288.996 889.494 302.436 889.494 318.948V410.244H868.47V323.268C868.47 310.596 864.822 300.516 857.526 293.028C850.23 285.54 840.438 281.796 828.15 281.796C819.51 281.796 811.734 283.716 804.822 287.556C798.102 291.396 792.63 296.868 788.406 303.972V410.244H767.094ZM925.157 410.244V208.644L946.469 203.748V331.044L1021.92 265.956H1047.84L968.645 334.5L1051.59 410.244H1022.5L946.469 341.124V410.244H925.157ZM1103.98 428.964L1112.33 409.956L1053.58 265.956H1077.19L1123.85 384.324L1174.25 265.956H1197.29L1125.58 431.844C1119.43 445.668 1112.62 455.652 1105.13 461.796C1097.64 467.94 1088.14 471.012 1076.62 471.012C1073.93 471.012 1071.34 470.82 1068.84 470.436C1066.54 470.244 1064.62 469.956 1063.08 469.572V450.276C1065 450.66 1066.83 450.948 1068.55 451.14C1070.47 451.332 1072.68 451.428 1075.18 451.428C1081.71 451.428 1087.27 449.604 1091.88 445.956C1096.49 442.308 1100.52 436.644 1103.98 428.964Z" fill="#757575"/>
<defs>
<filter id="filter0_d" x="0.926544" y="0.787231" width="365.348" height="365.348" filterUnits="userSpaceOnUse" color-interpolation-filters="sRGB">
<feFlood flood-opacity="0" result="BackgroundImageFix"/>
<feColorMatrix in="SourceAlpha" type="matrix" values="0 0 0 0 0 0 0 0 0 0 0 0 0 0 0 0 0 0 127 0"/>
<feOffset dy="4"/>
<feGaussianBlur stdDeviation="2"/>
<feColorMatrix type="matrix" values="0 0 0 0 0 0 0 0 0 0 0 0 0 0 0 0 0 0 0.25 0"/>
<feBlend mode="normal" in2="BackgroundImageFix" result="effect1_dropShadow"/>
<feBlend mode="normal" in="SourceGraphic" in2="effect1_dropShadow" result="shape"/>
</filter>
<filter id="filter1_d" x="94.3112" y="315.276" width="263.608" height="263.608" filterUnits="userSpaceOnUse" color-interpolation-filters="sRGB">
<feFlood flood-opacity="0" result="BackgroundImageFix"/>
<feColorMatrix in="SourceAlpha" type="matrix" values="0 0 0 0 0 0 0 0 0 0 0 0 0 0 0 0 0 0 127 0"/>
<feOffset dy="4"/>
<feGaussianBlur stdDeviation="2"/>
<feColorMatrix type="matrix" values="0 0 0 0 0 0 0 0 0 0 0 0 0 0 0 0 0 0 0.25 0"/>
<feBlend mode="normal" in2="BackgroundImageFix" result="effect1_dropShadow"/>
<feBlend mode="normal" in="SourceGraphic" in2="effect1_dropShadow" result="shape"/>
</filter>
<filter id="filter2_d" x="91.8305" y="196.129" width="265.893" height="265.893" filterUnits="userSpaceOnUse" color-interpolation-filters="sRGB">
<feFlood flood-opacity="0" result="BackgroundImageFix"/>
<feColorMatrix in="SourceAlpha" type="matrix" values="0 0 0 0 0 0 0 0 0 0 0 0 0 0 0 0 0 0 127 0"/>
<feOffset dy="4"/>
<feGaussianBlur stdDeviation="2"/>
<feColorMatrix type="matrix" values="0 0 0 0 0 0 0 0 0 0 0 0 0 0 0 0 0 0 0.25 0"/>
<feBlend mode="normal" in2="BackgroundImageFix" result="effect1_dropShadow"/>
<feBlend mode="normal" in="SourceGraphic" in2="effect1_dropShadow" result="shape"/>
</filter>
</defs>
</svg>
