<svg width="358" height="554" viewBox="0 0 358 554" fill="none" xmlns="http://www.w3.org/2000/svg">
<g filter="url(#filter0_d)">
<path fill-rule="evenodd" clip-rule="evenodd" d="M287.738 22.6819C284.192 22.7375 280.845 25.0269 280.719 27.4806C280.68 28.2513 277.838 30.7086 273.886 33.3891C268.194 37.2494 266.982 38.4151 266.246 40.7362C265.499 43.0899 263.733 44.6861 254.187 51.629C236.372 64.5857 217.256 80.0083 201.477 94.1532C183.895 109.917 180.914 111.905 171.703 114.014C163.376 115.922 154.869 119.233 148.962 122.867C142.884 126.607 20.7911 248.31 17.6918 253.719C14.5118 259.269 15.2153 266.58 19.7262 274.869C24.3949 283.449 28.5467 288.617 39.5842 299.593C59.7711 319.666 74.0127 326.278 84.3458 320.373C89.7348 317.293 211.463 195.162 215.206 189.08C218.828 183.192 222.142 174.677 224.047 166.359C226.156 157.147 228.144 154.166 243.908 136.584C258.053 120.806 273.475 101.689 286.432 83.8744C293.375 74.328 294.971 72.5621 297.325 71.815C299.646 71.0792 300.812 69.8668 304.672 64.1751C307.352 60.2233 309.81 57.3813 310.58 57.3417C313.034 57.2158 315.324 53.8686 315.379 50.3227C315.435 46.853 315.239 46.5989 303.351 34.7103C291.462 22.8217 291.208 22.6261 287.738 22.6819Z" fill="#4CC2F4"/>
</g>
<g filter="url(#filter1_d)">
<path fill-rule="evenodd" clip-rule="evenodd" d="M332.37 496.693C332.839 493.671 331.369 491.144 329.291 491.394C328.638 491.472 326.952 489.401 325.236 486.414C322.766 482.112 321.946 481.246 320.07 480.955C318.167 480.659 317.06 479.382 312.516 472.235C304.037 458.897 293.639 444.806 283.848 433.381C272.936 420.65 271.671 418.393 271.209 410.828C270.79 403.991 269.198 397.203 266.953 392.684C264.641 388.035 178.409 301.413 174.238 299.551C169.958 297.642 163.609 299.306 155.869 304.367C147.859 309.605 142.838 313.904 131.853 324.933C111.764 345.103 104.041 358.235 107.584 366.205C109.432 370.362 196.083 456.61 200.735 458.924C205.239 461.162 212.034 462.755 218.865 463.173C226.429 463.635 228.687 464.9 241.418 475.812C252.842 485.603 266.933 496 280.271 504.48C287.418 509.024 288.695 510.131 288.991 512.033C289.282 513.91 290.148 514.73 294.45 517.2C297.437 518.916 299.508 520.602 299.43 521.255C299.18 523.333 301.708 524.802 304.73 524.334C307.686 523.877 307.932 523.673 319.82 511.784C331.709 499.896 331.913 499.65 332.37 496.693Z" fill="#005397"/>
</g>
<g filter="url(#filter2_d)">
<path fill-rule="evenodd" clip-rule="evenodd" d="M304.518 192.693C301.481 192.24 298.929 193.734 299.167 195.823C299.242 196.479 297.148 198.189 294.133 199.933C289.79 202.445 288.913 203.275 288.609 205.164C288.299 207.08 287.008 208.202 279.789 212.817C266.319 221.429 252.078 231.976 240.524 241.897C227.649 252.953 225.37 254.239 217.757 254.751C210.875 255.213 204.036 256.856 199.476 259.143C194.785 261.497 107.108 348.784 105.21 352.991C103.262 357.309 104.899 363.687 109.943 371.443C115.164 379.47 119.459 384.495 130.488 395.48C150.659 415.569 163.823 423.258 171.864 419.645C176.057 417.761 263.36 330.056 265.716 325.361C267.995 320.816 269.639 313.97 270.101 307.095C270.612 299.481 271.899 297.202 282.955 284.327C292.875 272.773 303.422 258.533 312.035 245.062C316.65 237.844 317.772 236.552 319.687 236.243C321.577 235.939 322.407 235.062 324.919 230.719C326.663 227.703 328.372 225.609 329.029 225.684C331.118 225.922 332.612 223.371 332.159 220.333C331.717 217.361 331.513 217.116 319.625 205.227C307.736 193.338 307.49 193.135 304.518 192.693Z" fill="#4CC2F4"/>
</g>
<path d="M108.001 349.978L108.007 349.972L108.013 349.966L136.679 320.698L136.684 320.693L165.541 292.065C171.147 305.873 192.279 337.484 233.618 358.543L233.282 358.883C232.753 359.419 231.986 360.197 231.027 361.167C229.111 363.107 226.432 365.816 223.382 368.892C217.283 375.045 209.703 382.664 203.778 388.533C197.852 394.402 190.257 401.813 184.143 407.757C181.086 410.73 178.399 413.335 176.477 415.197C175.516 416.128 174.746 416.874 174.216 417.386L173.607 417.975L173.45 418.127L173.415 418.16C170.406 420.51 166.545 420.64 162.237 419.297C157.917 417.951 153.235 415.148 148.716 411.787C139.683 405.068 131.427 396.215 128.205 392.695L128.196 392.684L128.185 392.674C123.021 387.642 115.142 379.561 109.987 371.389C107.408 367.3 105.537 363.229 105.005 359.533C104.477 355.86 105.271 352.581 108.001 349.978Z" fill="#13B3F2" stroke="#13B3F2"/>
<defs>
<filter id="filter0_d" x="0.926514" y="0.611847" width="340.523" height="340.523" filterUnits="userSpaceOnUse" color-interpolation-filters="sRGB">
<feFlood flood-opacity="0" result="BackgroundImageFix"/>
<feColorMatrix in="SourceAlpha" type="matrix" values="0 0 0 0 0 0 0 0 0 0 0 0 0 0 0 0 0 0 127 0"/>
<feOffset dy="4"/>
<feGaussianBlur stdDeviation="2"/>
<feColorMatrix type="matrix" values="0 0 0 0 0 0 0 0 0 0 0 0 0 0 0 0 0 0 0.25 0"/>
<feBlend mode="normal" in2="BackgroundImageFix" result="effect1_dropShadow"/>
<feBlend mode="normal" in="SourceGraphic" in2="effect1_dropShadow" result="shape"/>
</filter>
<filter id="filter1_d" x="94.3112" y="290.276" width="263.608" height="263.608" filterUnits="userSpaceOnUse" color-interpolation-filters="sRGB">
<feFlood flood-opacity="0" result="BackgroundImageFix"/>
<feColorMatrix in="SourceAlpha" type="matrix" values="0 0 0 0 0 0 0 0 0 0 0 0 0 0 0 0 0 0 127 0"/>
<feOffset dy="4"/>
<feGaussianBlur stdDeviation="2"/>
<feColorMatrix type="matrix" values="0 0 0 0 0 0 0 0 0 0 0 0 0 0 0 0 0 0 0.25 0"/>
<feBlend mode="normal" in2="BackgroundImageFix" result="effect1_dropShadow"/>
<feBlend mode="normal" in="SourceGraphic" in2="effect1_dropShadow" result="shape"/>
</filter>
<filter id="filter2_d" x="91.8305" y="171.129" width="265.893" height="265.893" filterUnits="userSpaceOnUse" color-interpolation-filters="sRGB">
<feFlood flood-opacity="0" result="BackgroundImageFix"/>
<feColorMatrix in="SourceAlpha" type="matrix" values="0 0 0 0 0 0 0 0 0 0 0 0 0 0 0 0 0 0 127 0"/>
<feOffset dy="4"/>
<feGaussianBlur stdDeviation="2"/>
<feColorMatrix type="matrix" values="0 0 0 0 0 0 0 0 0 0 0 0 0 0 0 0 0 0 0.25 0"/>
<feBlend mode="normal" in2="BackgroundImageFix" result="effect1_dropShadow"/>
<feBlend mode="normal" in="SourceGraphic" in2="effect1_dropShadow" result="shape"/>
</filter>
</defs>
</svg>
