<svg width="1238" height="580" viewBox="0 0 1238 580" fill="none" xmlns="http://www.w3.org/2000/svg">
<g filter="url(#filter0_d)">
<path fill-rule="evenodd" clip-rule="evenodd" d="M312.286 23.1903C308.571 23.4151 304.959 25.9691 304.712 28.544C304.634 29.3527 301.543 32.0589 297.28 35.0508C291.14 39.3596 289.816 40.637 288.936 43.1017C288.044 45.601 286.12 47.355 275.799 55.0722C256.54 69.4739 235.801 86.5185 218.618 102.068C199.469 119.398 196.256 121.619 186.512 124.26C177.705 126.648 168.643 130.515 162.288 134.597C155.75 138.798 22.208 271.949 18.7091 277.757C15.1193 283.717 15.5124 291.339 19.846 299.805C24.331 308.568 28.4351 313.784 39.4754 324.757C59.6676 344.825 74.2676 351.079 85.3631 344.411C91.1499 340.934 224.329 207.352 228.533 200.808C232.602 194.474 236.471 185.403 238.857 176.605C241.498 166.861 243.719 163.648 261.048 144.499C276.598 127.316 293.643 106.577 308.045 87.3177C315.762 76.997 317.516 75.0732 320.015 74.1805C322.48 73.3011 323.757 71.977 328.066 65.8368C331.058 61.5735 333.764 58.4827 334.573 58.4051C337.148 58.1581 339.702 54.5462 339.927 50.8311C340.148 47.1958 339.955 46.939 328.066 35.0504C316.178 23.1619 315.921 22.9689 312.286 23.1903Z" fill="#45D1FD"/>
</g>
<g filter="url(#filter1_d)">
<path fill-rule="evenodd" clip-rule="evenodd" d="M332.261 521.858C332.73 518.836 331.261 516.309 329.182 516.558C328.529 516.637 326.843 514.566 325.128 511.579C322.657 507.277 321.837 506.411 319.961 506.119C318.058 505.823 316.951 504.547 312.408 497.399C303.928 484.062 293.531 469.971 283.739 458.546C272.827 445.815 271.562 443.558 271.1 435.993C270.682 429.155 269.09 422.368 266.844 417.849C264.532 413.2 178.3 326.578 174.129 324.716C169.849 322.806 163.5 324.471 155.76 329.532C147.75 334.769 142.73 339.069 131.745 350.098C111.655 370.268 103.933 383.4 107.475 391.37C109.323 395.527 195.974 481.775 200.626 484.088C205.13 486.327 211.925 487.92 218.756 488.337C226.32 488.8 228.578 490.064 241.309 500.977C252.733 510.768 266.825 521.165 280.162 529.645C287.309 534.189 288.586 535.296 288.882 537.198C289.173 539.075 290.04 539.894 294.342 542.365C297.328 544.08 299.399 545.767 299.321 546.419C299.072 548.498 301.599 549.967 304.621 549.499C307.577 549.042 307.823 548.837 319.712 536.949C331.6 525.06 331.804 524.815 332.261 521.858Z" fill="#02539A"/>
</g>
<g filter="url(#filter2_d)">
<path fill-rule="evenodd" clip-rule="evenodd" d="M304.409 217.857C301.372 217.405 298.82 218.898 299.059 220.988C299.133 221.644 297.04 223.353 294.024 225.097C289.681 227.609 288.804 228.439 288.5 230.329C288.19 232.245 286.899 233.366 279.681 237.981C266.21 246.594 251.969 257.141 240.415 267.061C227.54 278.118 225.261 279.404 217.648 279.915C210.766 280.378 203.927 282.021 199.367 284.308C194.676 286.662 106.999 373.948 105.101 378.156C103.154 382.474 104.79 388.852 109.834 396.608C115.055 404.635 119.35 409.66 130.379 420.644C150.55 440.733 163.714 448.423 171.755 444.81C175.949 442.926 263.251 355.221 265.607 350.525C267.886 345.98 269.53 339.135 269.992 332.26C270.503 324.646 271.79 322.367 282.846 309.492C292.767 297.938 303.313 283.697 311.926 270.227C316.541 263.008 317.663 261.717 319.579 261.408C321.468 261.103 322.298 260.227 324.81 255.883C326.554 252.868 328.263 250.774 328.92 250.849C331.009 251.087 332.503 248.536 332.05 245.498C331.608 242.526 331.404 242.28 319.516 230.392C307.627 218.503 307.381 218.299 304.409 217.857Z" fill="#45D1FD"/>
</g>
<path d="M107.892 375.142L107.898 375.136L107.904 375.13L136.57 345.862L136.575 345.857L165.432 317.229C171.038 331.037 192.17 362.649 233.509 383.708L233.173 384.048C232.645 384.583 231.877 385.361 230.919 386.331C229.002 388.272 226.323 390.981 223.273 394.057C217.174 400.209 209.594 407.828 203.669 413.697C197.743 419.566 190.148 426.978 184.034 432.922C180.977 435.894 178.29 438.5 176.368 440.362C175.407 441.293 174.637 442.038 174.107 442.551L173.499 443.139L173.341 443.291L173.306 443.325C170.297 445.675 166.436 445.804 162.128 444.462C157.808 443.116 153.126 440.313 148.607 436.951C139.574 430.233 131.318 421.38 128.096 417.86L128.087 417.849L128.076 417.839C122.912 412.806 115.033 404.726 109.878 396.553C107.299 392.465 105.428 388.394 104.896 384.698C104.368 381.025 105.162 377.746 107.892 375.142Z" fill="#3BBEEE" stroke="#3BBEEE"/>
<path d="M423.358 388.5V186.9H567.646V206.484H445.534V278.484H525.598V297.78H445.534V388.5H423.358ZM609.951 182.004V388.5H588.639V186.9L609.951 182.004ZM666.743 244.212V331.188C666.743 343.86 670.391 353.94 677.687 361.428C684.983 368.916 694.775 372.66 707.063 372.66C715.703 372.66 723.383 370.74 730.103 366.9C737.015 362.868 742.583 357.3 746.807 350.196V244.212H768.119V388.5H746.807V371.796C741.239 378.324 734.615 383.22 726.935 386.484C719.447 389.748 710.999 391.38 701.591 391.38C685.079 391.38 671.639 386.196 661.271 375.828C650.903 365.46 645.719 352.02 645.719 335.508V244.212H666.743ZM804.358 388.5V244.212H825.67V261.204C831.238 254.676 837.862 249.78 845.542 246.516C853.222 243.06 861.766 241.332 871.174 241.332C887.494 241.332 900.838 246.516 911.206 256.884C921.574 267.252 926.758 280.692 926.758 297.204V388.5H905.734V301.524C905.734 288.852 902.086 278.772 894.79 271.284C887.494 263.796 877.702 260.052 865.414 260.052C856.774 260.052 848.998 261.972 842.086 265.812C835.366 269.652 829.894 275.124 825.67 282.228V388.5H804.358ZM962.42 388.5V186.9L983.732 182.004V309.3L1059.19 244.212H1085.11L1005.91 312.756L1088.85 388.5H1059.76L983.732 319.38V388.5H962.42ZM1141.24 407.22L1149.59 388.212L1090.84 244.212H1114.46L1161.11 362.58L1211.51 244.212H1234.55L1162.84 410.1C1156.7 423.924 1149.88 433.908 1142.39 440.052C1134.91 446.196 1125.4 449.268 1113.88 449.268C1111.19 449.268 1108.6 449.076 1106.11 448.692C1103.8 448.5 1101.88 448.212 1100.35 447.828V428.532C1102.27 428.916 1104.09 429.204 1105.82 429.396C1107.74 429.588 1109.95 429.684 1112.44 429.684C1118.97 429.684 1124.54 427.86 1129.15 424.212C1133.75 420.564 1137.79 414.9 1141.24 407.22Z" fill="#757575"/>
<defs>
<filter id="filter0_d" x="0.817642" y="0.951965" width="365.348" height="365.348" filterUnits="userSpaceOnUse" color-interpolation-filters="sRGB">
<feFlood flood-opacity="0" result="BackgroundImageFix"/>
<feColorMatrix in="SourceAlpha" type="matrix" values="0 0 0 0 0 0 0 0 0 0 0 0 0 0 0 0 0 0 127 0"/>
<feOffset dy="4"/>
<feGaussianBlur stdDeviation="2"/>
<feColorMatrix type="matrix" values="0 0 0 0 0 0 0 0 0 0 0 0 0 0 0 0 0 0 0.25 0"/>
<feBlend mode="normal" in2="BackgroundImageFix" result="effect1_dropShadow"/>
<feBlend mode="normal" in="SourceGraphic" in2="effect1_dropShadow" result="shape"/>
</filter>
<filter id="filter1_d" x="94.2023" y="315.44" width="263.608" height="263.608" filterUnits="userSpaceOnUse" color-interpolation-filters="sRGB">
<feFlood flood-opacity="0" result="BackgroundImageFix"/>
<feColorMatrix in="SourceAlpha" type="matrix" values="0 0 0 0 0 0 0 0 0 0 0 0 0 0 0 0 0 0 127 0"/>
<feOffset dy="4"/>
<feGaussianBlur stdDeviation="2"/>
<feColorMatrix type="matrix" values="0 0 0 0 0 0 0 0 0 0 0 0 0 0 0 0 0 0 0.25 0"/>
<feBlend mode="normal" in2="BackgroundImageFix" result="effect1_dropShadow"/>
<feBlend mode="normal" in="SourceGraphic" in2="effect1_dropShadow" result="shape"/>
</filter>
<filter id="filter2_d" x="91.7216" y="196.293" width="265.893" height="265.893" filterUnits="userSpaceOnUse" color-interpolation-filters="sRGB">
<feFlood flood-opacity="0" result="BackgroundImageFix"/>
<feColorMatrix in="SourceAlpha" type="matrix" values="0 0 0 0 0 0 0 0 0 0 0 0 0 0 0 0 0 0 127 0"/>
<feOffset dy="4"/>
<feGaussianBlur stdDeviation="2"/>
<feColorMatrix type="matrix" values="0 0 0 0 0 0 0 0 0 0 0 0 0 0 0 0 0 0 0.25 0"/>
<feBlend mode="normal" in2="BackgroundImageFix" result="effect1_dropShadow"/>
<feBlend mode="normal" in="SourceGraphic" in2="effect1_dropShadow" result="shape"/>
</filter>
</defs>
</svg>
